<svg width="90" height="90" viewBox="0 0 90 90" fill="none" xmlns="http://www.w3.org/2000/svg">
<g id="analytics">
<path id="Vector" d="M84.375 53.4375V59.0625C84.375 61.3003 83.4861 63.4464 81.9037 65.0287C80.3214 66.6111 78.1753 67.5 75.9375 67.5H14.0625C11.8247 67.5 9.67863 66.6111 8.09629 65.0287C6.51395 63.4464 5.625 61.3003 5.625 59.0625V53.4375H84.375Z" fill="url(#paint0_linear_241_637)"/>
<path id="Vector_2" d="M53.6767 67.5H36.3235L30.5298 84.375H59.4704L53.6767 67.5Z" fill="#4795EA"/>
<path id="Vector_3" d="M61.875 84.375H28.125C27.752 84.375 27.3944 84.2268 27.1306 83.9631C26.8669 83.6994 26.7188 83.3417 26.7188 82.9688C26.7188 82.5958 26.8669 82.2381 27.1306 81.9744C27.3944 81.7107 27.752 81.5625 28.125 81.5625H61.875C62.248 81.5625 62.6056 81.7107 62.8694 81.9744C63.1331 82.2381 63.2812 82.5958 63.2812 82.9688C63.2812 83.3417 63.1331 83.6994 62.8694 83.9631C62.6056 84.2268 62.248 84.375 61.875 84.375Z" fill="#0668CB"/>
<path id="Vector_4" d="M46.4062 61.875H43.5938C43.2208 61.875 42.8631 61.7268 42.5994 61.4631C42.3357 61.1994 42.1875 60.8417 42.1875 60.4688C42.1875 60.0958 42.3357 59.7381 42.5994 59.4744C42.8631 59.2107 43.2208 59.0625 43.5938 59.0625H46.4062C46.7792 59.0625 47.1369 59.2107 47.4006 59.4744C47.6643 59.7381 47.8125 60.0958 47.8125 60.4688C47.8125 60.8417 47.6643 61.1994 47.4006 61.4631C47.1369 61.7268 46.7792 61.875 46.4062 61.875Z" fill="url(#paint1_linear_241_637)"/>
<path id="Vector_5" d="M84.375 14.0625V53.4375H5.625V14.0625C5.625 11.8247 6.51395 9.67863 8.09629 8.09629C9.67863 6.51395 11.8247 5.625 14.0625 5.625H75.9375C78.1753 5.625 80.3214 6.51395 81.9037 8.09629C83.4861 9.67863 84.375 11.8247 84.375 14.0625Z" fill="url(#paint2_linear_241_637)"/>
<path id="Vector_6" d="M36.914 39.9932C36.5968 39.9913 36.2896 39.8823 36.0422 39.6838C35.7524 39.4518 35.5661 39.1146 35.524 38.7458C35.4818 38.377 35.5872 38.0065 35.8172 37.7151L49.2187 21.0088C49.4605 20.7526 49.7897 20.5965 50.1411 20.5714C50.4926 20.5463 50.8406 20.654 51.1164 20.8732C51.3922 21.0925 51.5756 21.4072 51.6305 21.7552C51.6853 22.1032 51.6075 22.4592 51.4125 22.7526L37.9687 39.4588C37.8423 39.6191 37.6824 39.7499 37.5003 39.8422C37.3181 39.9345 37.1181 39.986 36.914 39.9932ZM32.85 40.5838C32.5632 40.5831 32.2835 40.4948 32.0484 40.3307L18.3797 30.9369C18.0949 30.7162 17.9057 30.3945 17.8512 30.0384C17.7966 29.6822 17.8809 29.3187 18.0865 29.0229C18.2922 28.727 18.6036 28.5214 18.9564 28.4484C19.3092 28.3754 19.6766 28.4407 19.9828 28.6307L33.6515 37.9682C33.9569 38.1811 34.1655 38.5064 34.2314 38.8729C34.2973 39.2393 34.2152 39.6169 34.0031 39.9229C33.8803 40.1196 33.7107 40.2829 33.5095 40.3982C33.3084 40.5135 33.0818 40.5773 32.85 40.5838ZM70.8609 34.9026C70.563 34.9036 70.2725 34.8101 70.0312 34.6354L53.4375 22.4994C53.2879 22.3905 53.1612 22.2531 53.0647 22.0952C52.9682 21.9373 52.9038 21.7619 52.875 21.5791C52.8463 21.3963 52.8539 21.2096 52.8973 21.0297C52.9407 20.8498 53.0191 20.6803 53.1281 20.5307C53.237 20.3811 53.3744 20.2544 53.5323 20.1579C53.6902 20.0614 53.8656 19.997 54.0484 19.9683C54.2312 19.9395 54.4179 19.9471 54.5978 19.9905C54.7777 20.0339 54.9473 20.1124 55.0968 20.2213L71.7187 32.3432C71.9598 32.5177 72.1393 32.7642 72.2313 33.0472C72.3234 33.3302 72.3233 33.6351 72.2311 33.9181C72.1388 34.201 71.9592 34.4474 71.7181 34.6218C71.4769 34.7962 71.1866 34.8896 70.889 34.8885L70.8609 34.9026Z" fill="#EB7F58"/>
<path id="Vector_7" d="M16.875 30.9375C18.4283 30.9375 19.6875 29.6783 19.6875 28.125C19.6875 26.5717 18.4283 25.3125 16.875 25.3125C15.3217 25.3125 14.0625 26.5717 14.0625 28.125C14.0625 29.6783 15.3217 30.9375 16.875 30.9375Z" fill="url(#paint3_linear_241_637)"/>
<path id="Vector_8" d="M35.1562 43.5938C36.7096 43.5938 37.9688 42.3346 37.9688 40.7812C37.9688 39.2279 36.7096 37.9688 35.1562 37.9688C33.6029 37.9688 32.3438 39.2279 32.3438 40.7812C32.3438 42.3346 33.6029 43.5938 35.1562 43.5938Z" fill="url(#paint4_linear_241_637)"/>
<path id="Vector_9" d="M52.0312 22.5C53.5846 22.5 54.8438 21.2408 54.8438 19.6875C54.8438 18.1342 53.5846 16.875 52.0312 16.875C50.4779 16.875 49.2188 18.1342 49.2188 19.6875C49.2188 21.2408 50.4779 22.5 52.0312 22.5Z" fill="url(#paint5_linear_241_637)"/>
<path id="Vector_10" d="M73.125 37.9688C74.6783 37.9688 75.9375 36.7096 75.9375 35.1562C75.9375 33.6029 74.6783 32.3438 73.125 32.3438C71.5717 32.3438 70.3125 33.6029 70.3125 35.1562C70.3125 36.7096 71.5717 37.9688 73.125 37.9688Z" fill="url(#paint6_linear_241_637)"/>
</g>
<defs>
<linearGradient id="paint0_linear_241_637" x1="5.625" y1="60.4687" x2="84.375" y2="60.4687" gradientUnits="userSpaceOnUse">
<stop stop-color="#54A5FF"/>
<stop offset="1" stop-color="#8AD3FE"/>
</linearGradient>
<linearGradient id="paint1_linear_241_637" x1="42.1875" y1="60.4688" x2="47.8125" y2="60.4688" gradientUnits="userSpaceOnUse">
<stop stop-color="#D3E6F5"/>
<stop offset="1" stop-color="#F0F7FC"/>
</linearGradient>
<linearGradient id="paint2_linear_241_637" x1="45" y1="53.4375" x2="45" y2="5.625" gradientUnits="userSpaceOnUse">
<stop stop-color="#D3E6F5"/>
<stop offset="1" stop-color="#F0F7FC"/>
</linearGradient>
<linearGradient id="paint3_linear_241_637" x1="14.0625" y1="28.125" x2="19.6875" y2="28.125" gradientUnits="userSpaceOnUse">
<stop stop-color="#FE9661"/>
<stop offset="1" stop-color="#FFB369"/>
</linearGradient>
<linearGradient id="paint4_linear_241_637" x1="32.3438" y1="40.7812" x2="37.9688" y2="40.7812" gradientUnits="userSpaceOnUse">
<stop stop-color="#FE9661"/>
<stop offset="1" stop-color="#FFB369"/>
</linearGradient>
<linearGradient id="paint5_linear_241_637" x1="49.2188" y1="19.6875" x2="54.8438" y2="19.6875" gradientUnits="userSpaceOnUse">
<stop stop-color="#FE9661"/>
<stop offset="1" stop-color="#FFB369"/>
</linearGradient>
<linearGradient id="paint6_linear_241_637" x1="70.3125" y1="35.1562" x2="75.9375" y2="35.1562" gradientUnits="userSpaceOnUse">
<stop stop-color="#FE9661"/>
<stop offset="1" stop-color="#FFB369"/>
</linearGradient>
</defs>
</svg>
