<svg width="79" height="79" viewBox="0 0 79 79" fill="none" xmlns="http://www.w3.org/2000/svg">
<g id="artificial-intelligence" clip-path="url(#clip0_241_617)">
<path id="Vector" d="M73.57 40.6164L75.0666 37.3412C75.1401 37.1802 75.1781 37.0052 75.1781 36.8283L75.1769 29.988C74.7899 20.6599 70.9819 12.8095 64.1638 7.28523C57.74 2.2073 49.694 -0.371438 41.5152 0.0263407C41.4869 0.0251372 26.8159 0.00012256 26.5393 0.00012256C21.4103 0.0416995 16.4013 1.55665 12.1089 4.36453C7.81659 7.17242 4.42178 11.1549 2.32884 15.8376C0.235895 20.5204 -0.466966 25.706 0.303968 30.7769C1.0749 35.8478 3.28714 40.5903 6.67719 44.4394C7.29713 45.1425 7.9168 45.8112 8.51606 46.4579C11.5253 49.7052 13.905 52.2731 14.1379 56.5879V60.4845C14.138 61.1393 14.3981 61.7672 14.8611 62.2302C15.324 62.6931 15.952 62.9532 16.6067 62.9533H36.4506C36.6388 62.9517 36.8262 62.9285 37.0091 62.8842C40.5543 73.627 59.0986 79.0001 63.8263 79.0001C64.9432 78.9991 66.0392 78.6973 66.9991 78.1265C67.9659 77.5469 68.7657 76.7264 69.3204 75.7452C69.8752 74.7639 70.1658 73.6556 70.164 72.5284V69.9524L72.206 68.3362C72.4546 68.1394 72.618 67.8546 72.6623 67.5407C72.7066 67.2268 72.6285 66.9079 72.4441 66.65L70.8939 64.4824L73.3597 63.6256C73.667 63.5188 73.9198 63.295 74.0631 63.0029C74.2063 62.7107 74.2284 62.3738 74.1245 62.0654L72.8166 58.1839H76.3998C76.8194 58.1828 77.2324 58.0798 77.6034 57.8838C77.9744 57.6879 78.2923 57.4048 78.5298 57.0589C78.7741 56.7045 78.9288 56.2962 78.9806 55.8689C79.0325 55.4416 78.98 55.0081 78.8276 54.6056L73.57 40.6164ZM36.4718 56.5245H36.4507V60.4845H16.6067V56.5244C16.2991 50.2914 12.3214 47.1076 8.52884 42.8066C5.453 39.3138 3.44549 35.0108 2.74523 30.4097C2.04497 25.8086 2.68145 21.1031 4.57891 16.8534C6.47637 12.6037 9.55492 8.98861 13.4481 6.43845C17.3414 3.88829 21.8854 2.51044 26.5393 2.46887C26.7906 2.46887 27.0443 2.47279 27.2974 2.4806C31.8841 2.66489 36.3247 4.14511 40.1046 6.74972C43.8845 9.35433 46.849 12.9767 48.6546 17.1971C50.4601 21.4175 51.0328 26.0631 50.3063 30.5956C49.5798 35.1282 47.5839 39.3621 44.5497 42.8067C40.8659 46.9841 36.7686 50.5103 36.4718 56.5245ZM76.4974 55.6567C76.488 55.6744 76.4739 55.6891 76.4567 55.6994C76.4395 55.7097 76.4198 55.7152 76.3998 55.7152H71.0982C70.9023 55.7152 70.7092 55.7619 70.5349 55.8513C70.3605 55.9407 70.21 56.0704 70.0957 56.2295C69.9814 56.3886 69.9066 56.5727 69.8775 56.7664C69.8484 56.9601 69.8658 57.158 69.9283 57.3437L71.3941 61.6948L68.5246 62.692C68.3433 62.7549 68.1791 62.8593 68.0452 62.9967C67.9113 63.1342 67.8112 63.301 67.7531 63.484C67.6949 63.6669 67.6802 63.8608 67.7101 64.0504C67.7401 64.24 67.8138 64.42 67.9255 64.5761L69.7517 67.1298L68.1636 68.3871C68.0175 68.5026 67.8995 68.6497 67.8184 68.8174C67.7373 68.985 67.6952 69.1688 67.6952 69.3551V72.5284C67.6979 73.2271 67.5192 73.9146 67.1766 74.5235C66.834 75.1325 66.3392 75.6421 65.7406 76.0025C65.1616 76.3476 64.5003 76.5303 63.8263 76.5314C58.7658 76.5314 39.6795 70.2938 38.9194 59.8878V56.8468C38.9282 56.7808 38.9342 56.7139 38.9376 56.6462C39.1482 52.3784 41.7591 49.529 44.7823 46.2296C45.3126 45.6509 45.8609 45.0524 46.4013 44.4396C49.1453 41.322 51.1268 37.6092 52.1893 33.5943C53.2518 29.5794 53.3662 25.3724 52.5235 21.3057C51.6807 17.239 49.904 13.424 47.3335 10.1619C44.7631 6.89985 41.4693 4.28015 37.7125 2.50974C39.2092 2.51098 41.5369 2.4981 41.5924 2.49268C56.4604 1.93636 71.927 11.2219 72.7093 30.0392V36.5597L71.1109 40.0573C71.0433 40.2053 71.0057 40.3651 71.0001 40.5277C70.9945 40.6902 71.0211 40.8523 71.0783 41.0045L76.5179 55.4777C76.53 55.5068 76.5345 55.5385 76.5309 55.5699C76.5273 55.6012 76.5158 55.6311 76.4974 55.6567Z" fill="url(#paint0_linear_241_617)"/>
<path id="Vector_2" d="M36.4145 66.6562C36.4145 66.3289 36.2844 66.0149 36.0529 65.7834C35.8214 65.5519 35.5075 65.4219 35.1801 65.4219H17.8987C17.5714 65.4219 17.2574 65.5519 17.0259 65.7834C16.7944 66.0149 16.6644 66.3289 16.6644 66.6562C16.6644 66.9836 16.7944 67.2976 17.0259 67.5291C17.2574 67.7606 17.5714 67.8906 17.8987 67.8906H35.1801C35.5075 67.8906 35.8214 67.7606 36.0529 67.5291C36.2844 67.2976 36.4145 66.9836 36.4145 66.6562ZM20.3675 70.3594C20.0402 70.3594 19.7262 70.4894 19.4947 70.7209C19.2632 70.9524 19.1332 71.2664 19.1332 71.5938C19.1332 71.9211 19.2632 72.2351 19.4947 72.4666C19.7262 72.6981 20.0402 72.8281 20.3675 72.8281H32.7114C33.0387 72.8281 33.3527 72.6981 33.5842 72.4666C33.8157 72.2351 33.9457 71.9211 33.9457 71.5938C33.9457 71.2664 33.8157 70.9524 33.5842 70.7209C33.3527 70.4894 33.0387 70.3594 32.7114 70.3594H20.3675ZM26.5394 8.02344C22.8774 8.02346 19.2976 9.1094 16.2527 11.1439C13.2079 13.1785 10.8347 16.0702 9.43332 19.4535C8.03193 22.8368 7.66528 26.5597 8.37972 30.1514C9.09416 33.743 10.8576 37.0422 13.4471 39.6316C16.0365 42.2211 19.3357 43.9845 22.9274 44.6989C26.5191 45.4133 30.2419 45.0467 33.6252 43.6453C37.0085 42.2439 39.9002 39.8707 41.9347 36.8258C43.9693 33.7809 45.0552 30.2011 45.0552 26.5391C45.0496 21.6301 43.097 16.9238 39.6259 13.4527C36.1547 9.98152 31.4484 8.02899 26.5394 8.02344ZM26.5394 42.5859C23.3657 42.5859 20.2632 41.6448 17.6243 39.8815C14.9854 38.1183 12.9287 35.6121 11.7141 32.6799C10.4996 29.7477 10.1818 26.5212 10.801 23.4084C11.4202 20.2956 12.9485 17.4364 15.1927 15.1922C17.4369 12.948 20.2962 11.4197 23.409 10.8005C26.5217 10.1814 29.7482 10.4991 32.6804 11.7137C35.6126 12.9282 38.1188 14.985 39.882 17.6239C41.6453 20.2628 42.5864 23.3653 42.5864 26.5391C42.5816 30.7935 40.8894 34.8723 37.8811 37.8807C34.8727 40.889 30.7939 42.5812 26.5394 42.5859Z" fill="url(#paint1_linear_241_617)"/>
<path id="Vector_3" d="M38.8833 25.3047C38.5559 25.3047 38.242 25.4348 38.0105 25.6662C37.779 25.8977 37.6489 26.2117 37.6489 26.5391C37.6489 28.7363 36.9974 30.8842 35.7767 32.7112C34.556 34.5381 32.8209 35.962 30.7909 36.8029C28.761 37.6438 26.5272 37.8638 24.3722 37.4351C22.2172 37.0065 20.2376 35.9484 18.6839 34.3947C17.1302 32.841 16.0722 30.8615 15.6435 28.7065C15.2148 26.5515 15.4348 24.3177 16.2757 22.2878C17.1165 20.2578 18.5405 18.5227 20.3674 17.302C22.1943 16.0812 24.3422 15.4297 26.5395 15.4297C26.8669 15.4297 27.1808 15.2996 27.4123 15.0681C27.6438 14.8367 27.7739 14.5227 27.7739 14.1953C27.7739 13.8679 27.6438 13.554 27.4123 13.3225C27.1808 13.091 26.8669 12.9609 26.5395 12.9609C23.854 12.961 21.2288 13.7573 18.9959 15.2493C16.763 16.7413 15.0227 18.8619 13.995 21.343C12.9673 23.8241 12.6984 26.5542 13.2223 29.1881C13.7463 31.822 15.0395 34.2413 16.9384 36.1403C18.8373 38.0392 21.2567 39.3324 23.8906 39.8563C26.5245 40.3802 29.2546 40.1113 31.7357 39.0836C34.2168 38.0559 36.3374 36.3156 37.8294 34.0827C39.3213 31.8497 40.1177 29.2246 40.1177 26.5391C40.1177 26.2117 39.9876 25.8977 39.7561 25.6662C39.5246 25.4348 39.2107 25.3047 38.8833 25.3047Z" fill="url(#paint2_linear_241_617)"/>
<path id="Vector_4" d="M17.8984 26.5391C17.8984 28.248 18.4052 29.9186 19.3546 31.3396C20.3041 32.7605 21.6536 33.868 23.2324 34.522C24.8113 35.176 26.5487 35.3472 28.2248 35.0138C29.9009 34.6804 31.4405 33.8574 32.649 32.649C33.8574 31.4406 34.6804 29.901 35.0138 28.2249C35.3472 26.5487 35.1761 24.8114 34.5221 23.2325C33.8681 21.6536 32.7606 20.3041 31.3396 19.3547C29.9187 18.4052 28.2481 17.8984 26.5391 17.8984C24.2483 17.901 22.052 18.8122 20.4321 20.432C18.8122 22.0519 17.901 24.2482 17.8984 26.5391ZM32.711 26.5391C32.7111 27.7598 32.3491 28.953 31.6709 29.968C30.9927 30.983 30.0288 31.7741 28.9011 32.2412C27.7733 32.7083 26.5323 32.8306 25.3351 32.5924C24.1378 32.3543 23.0381 31.7665 22.1749 30.9033C21.3118 30.0402 20.724 28.9404 20.4858 27.7432C20.2477 26.546 20.3699 25.305 20.837 24.1772C21.3042 23.0494 22.0952 22.0855 23.1102 21.4073C24.1252 20.7292 25.3185 20.3672 26.5391 20.3672C28.1755 20.3691 29.7442 21.0199 30.9013 22.177C32.0583 23.334 32.7092 24.9028 32.711 26.5391Z" fill="url(#paint3_linear_241_617)"/>
<path id="Vector_5" d="M22.8359 26.5391C22.8359 26.8664 22.966 27.1804 23.1975 27.4119C23.429 27.6434 23.7429 27.7734 24.0703 27.7734C24.3977 27.7734 24.7117 27.6434 24.9431 27.4119C25.1746 27.1804 25.3047 26.8664 25.3047 26.5391C25.3047 26.2949 25.3771 26.0563 25.5127 25.8533C25.6483 25.6503 25.8411 25.4921 26.0667 25.3987C26.2922 25.3052 26.5404 25.2808 26.7799 25.3284C27.0193 25.376 27.2393 25.4936 27.4119 25.6662C27.5845 25.8388 27.7021 26.0588 27.7497 26.2982C27.7973 26.5377 27.7729 26.7859 27.6795 27.0114C27.5861 27.237 27.4279 27.4298 27.2249 27.5654C27.0219 27.701 26.7832 27.7734 26.5391 27.7734C26.2117 27.7734 25.8978 27.9035 25.6663 28.135C25.4348 28.3665 25.3047 28.6804 25.3047 29.0078C25.3047 29.3352 25.4348 29.6492 25.6663 29.8806C25.8978 30.1121 26.2117 30.2422 26.5391 30.2422C27.2715 30.2422 27.9875 30.025 28.5964 29.6181C29.2054 29.2112 29.68 28.6328 29.9603 27.9562C30.2406 27.2795 30.3139 26.5349 30.171 25.8166C30.0281 25.0983 29.6754 24.4384 29.1576 23.9205C28.6397 23.4027 27.9798 23.05 27.2615 22.9071C26.5432 22.7642 25.7986 22.8375 25.1219 23.1178C24.4453 23.3981 23.8669 23.8727 23.46 24.4817C23.0531 25.0907 22.8359 25.8067 22.8359 26.5391Z" fill="url(#paint4_linear_241_617)"/>
</g>
<defs>
<linearGradient id="paint0_linear_241_617" x1="5.10582" y1="-0.0136698" x2="87.1318" y2="69.0798" gradientUnits="userSpaceOnUse">
<stop stop-color="#3A69FF"/>
<stop offset="1" stop-color="#C23E56"/>
</linearGradient>
<linearGradient id="paint1_linear_241_617" x1="10.4173" y1="8.02344" x2="63.7805" y2="33.7136" gradientUnits="userSpaceOnUse">
<stop stop-color="#3A69FF"/>
<stop offset="1" stop-color="#C23E56"/>
</linearGradient>
<linearGradient id="paint2_linear_241_617" x1="14.7166" y1="12.9609" x2="42.9089" y2="36.7125" gradientUnits="userSpaceOnUse">
<stop stop-color="#3A69FF"/>
<stop offset="1" stop-color="#C23E56"/>
</linearGradient>
<linearGradient id="paint3_linear_241_617" x1="19.0153" y1="17.8984" x2="36.956" y2="33.0132" gradientUnits="userSpaceOnUse">
<stop stop-color="#3A69FF"/>
<stop offset="1" stop-color="#C23E56"/>
</linearGradient>
<linearGradient id="paint4_linear_241_617" x1="23.3146" y1="22.8359" x2="31.0034" y2="29.3136" gradientUnits="userSpaceOnUse">
<stop stop-color="#3A69FF"/>
<stop offset="1" stop-color="#C23E56"/>
</linearGradient>
<clipPath id="clip0_241_617">
<rect width="79" height="79" fill="white"/>
</clipPath>
</defs>
</svg>
