<svg width="61" height="61" viewBox="0 0 61 61" fill="none" xmlns="http://www.w3.org/2000/svg">
<g id="PaperPlaneTilt" clip-path="url(#clip0_219_245)">
<path id="Vector" d="M54.3429 30.4986L54.3429 30.5002C54.3399 31.0217 54.1981 31.533 53.932 31.9815C53.6721 32.4197 53.3028 32.7827 52.8605 33.0349L52.8408 33.0546L52.8081 33.0721L23.1027 48.9543C23.102 48.9547 23.1012 48.9551 23.1005 48.9555C22.5816 49.2452 21.9866 49.3695 21.3951 49.3118C20.8031 49.254 20.243 49.0167 19.7897 48.6316C19.7251 48.5773 19.663 48.5204 19.6035 48.4609C19.6033 48.4608 19.6032 48.4606 19.603 48.4604L19.7797 48.2836C19.4192 47.9253 19.1687 47.4714 19.0578 46.9753C18.9469 46.4793 18.9802 45.9619 19.1538 45.4842L54.3429 30.4986ZM54.3429 30.4986C54.3428 29.9764 54.2034 29.4637 53.9391 29.0132C53.6809 28.573 53.3125 28.2078 52.8704 27.9535L52.8503 27.9333L52.8176 27.9159L23.1064 12.0378C23.1059 12.0375 23.1054 12.0372 23.1048 12.0369C22.583 11.7486 21.9857 11.6259 21.3923 11.6851C20.7984 11.7445 20.2367 11.9833 19.7819 12.3699C19.3271 12.7564 19.0008 13.2724 18.8466 13.849C18.6923 14.4256 18.7174 15.0355 18.9184 15.5975L24.2414 30.4987L18.9189 45.3988C18.9188 45.399 18.9187 45.3991 18.9187 45.3993L54.3429 30.4986ZM22.1415 15.1446L50.8736 30.4988L22.1387 45.8627L27.0561 32.0932L38.1027 32.092V32.0921L38.1091 32.092C38.5246 32.0813 38.9195 31.9088 39.2096 31.6112C39.4997 31.3135 39.662 30.9143 39.662 30.4987C39.662 30.0831 39.4997 29.6839 39.2096 29.3863C38.9195 29.0887 38.5246 28.9161 38.1091 28.9055L38.1091 28.9054L38.1027 28.9054L27.0561 28.9042L22.1415 15.1446Z" fill="url(#paint0_linear_219_245)" stroke="url(#paint1_linear_219_245)" stroke-width="0.5"/>
</g>
<defs>
<linearGradient id="paint0_linear_219_245" x1="30.3182" y1="5.61167" x2="34.6743" y2="56.4939" gradientUnits="userSpaceOnUse">
<stop stop-color="#3A69FF"/>
<stop offset="1" stop-color="#C23E56"/>
</linearGradient>
<linearGradient id="paint1_linear_219_245" x1="30.3182" y1="5.61167" x2="34.6743" y2="56.4939" gradientUnits="userSpaceOnUse">
<stop stop-color="#3A69FF"/>
<stop offset="1" stop-color="#C23E56"/>
</linearGradient>
<clipPath id="clip0_219_245">
<rect width="43" height="43" fill="white" transform="translate(30.5 0.09375) rotate(45)"/>
</clipPath>
</defs>
</svg>
