<svg width="87" height="87" viewBox="0 0 87 87" fill="none" xmlns="http://www.w3.org/2000/svg">
<g id="support">
<path id="Vector" d="M57.0938 76.125H51.6562C50.8406 76.125 50.2969 75.5812 50.2969 74.7656C50.2969 73.95 50.8406 73.4062 51.6562 73.4062H57.0938C65.25 73.4062 72.0469 66.6094 72.0469 58.4531V55.7344C72.0469 54.9187 72.5906 54.375 73.4062 54.375C74.2219 54.375 74.7656 54.9187 74.7656 55.7344V58.4531C74.7656 68.2406 66.8813 76.125 57.0938 76.125Z" fill="#004463"/>
<path id="Vector_2" d="M53.0156 74.7656C53.0156 76.3969 51.9281 77.4844 50.2969 77.4844H47.5781C45.9469 77.4844 44.8594 76.3969 44.8594 74.7656C44.8594 73.1344 45.9469 72.0469 47.5781 72.0469H50.2969C51.9281 72.0469 53.0156 73.1344 53.0156 74.7656Z" fill="#607D95"/>
<path id="Vector_3" d="M70.6875 43.5C69.8719 43.5 69.3281 42.9563 69.3281 42.1406V33.9844C69.3281 33.1687 69.8719 32.625 70.6875 32.625C71.5031 32.625 72.0469 33.1687 72.0469 33.9844V42.1406C72.0469 42.9563 71.5031 43.5 70.6875 43.5ZM13.5938 43.5C12.7781 43.5 12.2344 42.9563 12.2344 42.1406V33.9844C12.2344 33.1687 12.7781 32.625 13.5938 32.625C14.4094 32.625 14.9531 33.1687 14.9531 33.9844V42.1406C14.9531 42.9563 14.4094 43.5 13.5938 43.5Z" fill="#004463"/>
<path id="Vector_4" d="M67.9688 42.1406H73.4062C75.0375 42.1406 76.125 43.2281 76.125 44.8594V55.7344C76.125 57.3656 75.0375 58.4531 73.4062 58.4531H67.9688V42.1406Z" fill="#607D95"/>
<path id="Vector_5" d="M70.4154 35.3438C72.0466 35.3438 73.406 33.9844 73.1341 32.3531C71.7748 16.5844 58.4529 4.07812 42.1404 4.07812C25.8279 4.07812 12.506 16.5844 11.1466 32.3531C10.8748 33.9844 12.2341 35.3438 13.8654 35.3438C15.2248 35.3438 16.3123 34.2563 16.5841 32.8969C17.6716 19.8469 28.8185 9.51562 42.4123 9.51562C56.006 9.51562 66.881 19.8469 68.2404 32.8969C67.9685 34.2563 69.056 35.3438 70.4154 35.3438Z" fill="#01A6FF"/>
<path id="Vector_6" d="M16.5841 32.3531C17.9435 17.4 29.906 5.4375 44.8591 4.07812H42.1404C25.8279 4.07812 12.506 16.5844 11.1466 32.3531C10.8748 33.9844 12.2341 35.3438 13.8654 35.3438C15.2248 35.3438 16.3123 34.2563 16.5841 32.8969C16.3123 32.8969 16.5841 32.625 16.5841 32.3531ZM47.5779 9.51562C46.7623 9.51562 45.6748 9.51562 44.8591 9.7875C57.0935 11.1469 66.6091 20.9344 67.9685 33.1687C67.9685 34.5281 69.3279 35.6156 70.6873 35.6156C72.3185 35.6156 73.406 34.2563 73.406 32.8969C71.7748 19.575 60.8998 9.51562 47.5779 9.51562Z" fill="#006EF4"/>
<path id="Vector_7" d="M51.6562 50.2969H32.625C30.9937 50.2969 29.9062 51.3844 29.9062 53.0156V63.8906C29.9062 65.5219 30.9937 66.6094 32.625 66.6094H35.3438V72.0469L43.5 66.6094H51.6562C53.2875 66.6094 54.375 65.5219 54.375 63.8906V53.0156C54.375 51.3844 53.2875 50.2969 51.6562 50.2969Z" fill="#EEF2FA"/>
<path id="Vector_8" d="M40.7812 68.5125V66.6094H38.0625C36.4313 66.6094 35.3438 65.5219 35.3438 63.8906V53.0156C35.3438 51.3844 36.4313 50.2969 38.0625 50.2969H32.625C30.9937 50.2969 29.9062 51.3844 29.9062 53.0156V63.8906C29.9062 65.5219 30.9937 66.6094 32.625 66.6094H35.3438V72.0469L40.7812 68.5125Z" fill="#D5E5F2"/>
<path id="Vector_9" d="M19.0312 61.1719C17.4 61.1719 16.3125 60.0844 16.3125 58.4531V42.1406C16.3125 40.5094 17.4 39.4219 19.0312 39.4219C20.6625 39.4219 21.75 40.5094 21.75 42.1406V58.4531C21.75 60.0844 20.6625 61.1719 19.0312 61.1719ZM65.25 39.4219C66.8812 39.4219 67.9688 40.5094 67.9688 42.1406V58.4531C67.9688 60.0844 66.8812 61.1719 65.25 61.1719C63.6188 61.1719 62.5312 60.0844 62.5312 58.4531V42.1406C62.5312 40.5094 63.6188 39.4219 65.25 39.4219Z" fill="#4B6C85"/>
<path id="Vector_10" d="M19.0312 55.7344C17.4 55.7344 16.3125 54.6469 16.3125 53.0156V58.4531C16.3125 60.0844 17.4 61.1719 19.0312 61.1719C20.6625 61.1719 21.75 60.0844 21.75 58.4531V53.0156C21.75 54.6469 20.6625 55.7344 19.0312 55.7344ZM65.25 55.7344C63.6188 55.7344 62.5312 54.6469 62.5312 53.0156V58.4531C62.5312 60.0844 63.6188 61.1719 65.25 61.1719C66.8812 61.1719 67.9688 60.0844 67.9688 58.4531V53.0156C67.9688 54.6469 66.8812 55.7344 65.25 55.7344Z" fill="#40657C"/>
<path id="Vector_11" d="M16.3125 58.4531H10.875C9.24375 58.4531 8.15625 57.3656 8.15625 55.7344V44.8594C8.15625 43.2281 9.24375 42.1406 10.875 42.1406H16.3125V58.4531Z" fill="#607D95"/>
<path id="Vector_12" d="M12.2344 42.1406V51.6562C12.2344 53.2875 11.1469 54.375 9.51562 54.375H8.15625V55.7344C8.15625 57.3656 9.24375 58.4531 10.875 58.4531H16.3125V42.1406H12.2344ZM72.0469 42.1406V51.6562C72.0469 53.2875 73.1344 54.375 74.7656 54.375H76.125V55.7344C76.125 57.3656 75.0375 58.4531 73.4062 58.4531H67.9688V42.1406H72.0469Z" fill="#4B6C85"/>
<path id="Vector_13" d="M49.2093 57.0938H35.0718C34.2562 57.0938 33.7124 56.55 33.7124 55.7344C33.7124 54.9187 34.2562 54.375 35.0718 54.375H49.2093C50.0249 54.375 50.5687 54.9187 50.5687 55.7344C50.5687 56.55 50.0249 57.0938 49.2093 57.0938ZM43.7718 62.5312H35.0718C34.2562 62.5312 33.7124 61.9875 33.7124 61.1719C33.7124 60.3562 34.2562 59.8125 35.0718 59.8125H43.7718C44.5874 59.8125 45.1312 60.3562 45.1312 61.1719C45.1312 61.9875 44.5874 62.5312 43.7718 62.5312Z" fill="#99B5CE"/>
</g>
</svg>
