<svg width="82" height="82" viewBox="0 0 82 82" fill="none" xmlns="http://www.w3.org/2000/svg">
<g id="wishlist" clip-path="url(#clip0_241_648)">
<path id="Vector" d="M37.6752 20.0483C37.4849 20.0486 37.2969 20.0064 37.125 19.9249C36.9531 19.8433 36.8015 19.7244 36.6814 19.5768C34.4685 16.8633 33.326 14.364 33.2854 12.1488C33.242 9.75299 34.1205 7.80661 35.7594 6.6679C36.8963 5.87769 38.2021 5.53592 39.6359 5.65187C39.8036 5.6654 39.967 5.71182 40.1168 5.7885C40.2666 5.86518 40.3997 5.9706 40.5088 6.09875C40.6178 6.22691 40.7005 6.37528 40.7521 6.53539C40.8038 6.69551 40.8234 6.86424 40.8099 7.03194C40.753 7.73726 40.1331 8.26081 39.4298 8.20588C38.5901 8.13781 37.8675 8.32328 37.2216 8.77219C36.0505 9.58563 35.8281 11.0318 35.8476 12.1018C35.8774 13.7292 36.8258 15.6993 38.6673 17.9573C38.8205 18.1451 38.9172 18.3724 38.9464 18.613C38.9755 18.8535 38.9358 19.0974 38.8319 19.3163C38.7281 19.5352 38.5643 19.7202 38.3595 19.8498C38.1548 19.9793 37.9175 20.0482 37.6752 20.0483ZM82 24.8413C82 25.3178 81.9146 25.7829 81.7462 26.2247L74.9528 48.2497C74.2401 50.5606 72.8559 52.5256 70.9499 53.9326C69.0309 55.3487 66.7427 56.0971 64.333 56.0971H43.96C43.4755 57.6657 42.0123 58.8087 40.2868 58.8087H23.3224C22.4638 58.8087 21.6514 59.1481 21.0351 59.7647C20.4186 60.3809 20.0793 61.1933 20.0793 62.052C20.0793 62.9106 20.4186 63.7231 21.0351 64.3395C21.6514 64.9558 22.4637 65.2952 23.3224 65.2952H24.4141C26.1924 63.4998 28.6572 62.3855 31.378 62.3855C34.0987 62.3855 36.5635 63.4998 38.3419 65.2952H55.9592C57.7376 63.4998 60.2024 62.3855 62.9231 62.3855C68.331 62.3855 72.7303 66.785 72.7303 72.1926C72.7303 77.6003 68.3311 82 62.9235 82C57.8108 82 53.6017 78.067 53.1573 73.0679H41.1443C40.6997 78.067 36.4908 82 31.3781 82C26.2187 82 21.9802 77.9944 21.6016 72.9301C19.3187 72.5688 17.1995 71.4955 15.5393 69.8353C13.4546 67.7502 12.3066 64.9864 12.3066 62.052C12.3066 59.1176 13.4546 56.3537 15.5393 54.2687C16.4425 53.3671 17.494 52.6274 18.6478 52.082L9.14268 12.7092H3.88651C1.74346 12.7092 0 10.9659 0 8.82296C0 6.67991 1.74346 4.93645 3.88651 4.93645H9.83728C11.4014 4.93645 12.8732 5.44463 14.0942 6.40589C15.3101 7.36314 16.1476 8.67594 16.5158 10.2025L19.1116 20.9551H30.718C28.8984 18.2113 27.6889 15.2665 27.634 12.2516C27.5398 7.09087 30.1999 2.74311 34.5758 0.905159C39.2687 -1.0662 44.817 0.221932 49.306 4.25226C53.7944 0.222573 59.3419 -1.06572 64.0354 0.904839C68.4109 2.74231 71.0713 7.08927 70.978 12.2497C70.9234 15.2652 69.7138 18.2105 67.8939 20.955H78.1136C80.2565 20.9551 82 22.6986 82 24.8413ZM30.1962 12.205C30.2654 15.9978 32.788 20.4136 37.491 24.9754C41.8616 29.2147 46.8355 32.4037 49.3059 33.8716C51.7766 32.4036 56.7509 29.2141 61.1216 24.9746C65.8249 20.4125 68.3472 15.9962 68.4157 12.2034C68.4908 8.05213 66.4825 4.71175 63.0431 3.26746C59.0145 1.57557 54.1005 2.97614 50.2194 6.92239C50.1001 7.04358 49.9579 7.13983 49.8011 7.20553C49.6442 7.27123 49.4759 7.30507 49.3059 7.30507C49.1358 7.30507 48.9675 7.27123 48.8106 7.20553C48.6538 7.13983 48.5116 7.04358 48.3923 6.92239C45.6 4.08298 42.2729 2.56149 39.1257 2.56149C37.8983 2.56149 36.6987 2.79276 35.5681 3.26762C32.1285 4.71239 30.1203 8.05341 30.1962 12.205ZM62.0344 34.2726H53.4795C52.5298 34.901 51.5654 35.507 50.5873 36.0902V42.5698H62.0344V34.2726ZM64.5969 42.57H74.0231L76.5822 34.2726H64.5969V42.57ZM62.0344 45.1325H50.5873V53.5347H62.0344V45.1325ZM43.887 53.5347H48.0248V45.1325H36.5776V51.036H40.2867C41.9332 51.036 43.3405 52.0768 43.887 53.5347ZM36.5778 31.7101H41.488C39.8952 30.5177 38.2075 29.1506 36.5778 27.646V31.7101ZM36.5778 34.2726V42.57H48.0249V36.0905C47.0467 35.5072 46.0822 34.9011 45.1324 34.2728H36.5778V34.2726ZM34.0153 34.2726H22.3267L24.3298 42.57H34.0153V34.2726ZM24.9483 45.1325L26.3736 51.036H34.0153V45.1325H24.9483ZM62.0344 31.7101V27.6456C60.4045 29.1505 58.7166 30.5177 57.1239 31.7101H62.0344ZM19.7303 23.5176L21.7081 31.7101H34.0153V25.0961C33.5387 24.5829 33.0765 24.0565 32.6291 23.5176H19.7303ZM55.6786 72.1928C55.6786 76.1876 58.9285 79.4375 62.9233 79.4375C66.9181 79.4375 70.168 76.1876 70.168 72.1928C70.168 68.198 66.9181 64.9481 62.9233 64.9481C58.9285 64.9481 55.6786 68.1979 55.6786 72.1928ZM40.1721 67.8577C40.586 68.6942 40.8772 69.5859 41.037 70.5054H53.2644C53.4242 69.5859 53.7155 68.6942 54.1293 67.8577H40.1721ZM24.1335 72.1928C24.1335 76.1876 27.3834 79.4375 31.3781 79.4375C35.3729 79.4375 38.6228 76.1876 38.6228 72.1928C38.6228 68.198 35.3729 64.9481 31.3781 64.9481C27.3834 64.9481 24.1335 68.1979 24.1335 72.1928ZM41.5679 54.8797C41.5679 54.1733 40.9933 53.5985 40.2868 53.5985H25.3647C25.0772 53.5985 24.7981 53.5018 24.5722 53.3239C24.3463 53.1461 24.1868 52.8974 24.1194 52.6178L14.0249 10.8036C13.7928 9.84156 13.2685 9.01723 12.509 8.41921C11.7444 7.81702 10.8205 7.49895 9.83712 7.49895H3.88651C3.15636 7.49895 2.5625 8.09281 2.5625 8.82296C2.5625 9.55296 3.15636 10.1468 3.88651 10.1468H9.83728C10.6286 10.1468 11.2841 10.66 11.4685 11.4237L21.3966 52.5493C21.4713 52.8588 21.4281 53.185 21.2754 53.4643C21.1228 53.7437 20.8716 53.9563 20.5708 54.0605C19.3701 54.4768 18.2569 55.1754 17.3513 56.0809C15.7506 57.6817 14.8691 59.8023 14.8691 62.0522C14.8691 64.3019 15.7506 66.4225 17.3513 68.0234C18.5639 69.236 20.0934 70.0422 21.7457 70.3569C21.9139 69.4729 22.2038 68.6165 22.6073 67.8122C21.3336 67.6548 20.1515 67.0801 19.2229 66.1515C18.1226 65.0509 17.5168 63.5951 17.5168 62.052C17.5168 60.5087 18.1226 59.0528 19.2229 57.9525C20.3233 56.8522 21.7793 56.2462 23.3224 56.2462H40.2868C40.9933 56.2462 41.5679 55.6714 41.5679 54.9649V54.8797ZM72.5042 47.4946L73.2327 45.1325H64.5969V53.5296C66.3579 53.4777 68.0233 52.9077 69.4282 51.8709C70.8903 50.7918 71.9539 49.2783 72.5042 47.4946ZM79.4375 24.8413C79.4375 24.1113 78.8436 23.5175 78.1135 23.5175H65.9828C65.5355 24.0563 65.0734 24.5825 64.5969 25.0956V31.7099H77.3726L79.311 25.4256C79.3211 25.393 79.3323 25.3612 79.3448 25.3295C79.4064 25.1749 79.4375 25.0108 79.4375 24.8413ZM26.6255 72.1928C26.6255 69.5722 28.7577 67.44 31.3781 67.44C33.9986 67.44 36.1308 69.5722 36.1308 72.1928C36.1308 74.8133 33.9986 76.9454 31.3781 76.9454C28.7577 76.9454 26.6255 74.8133 26.6255 72.1928ZM29.188 72.1928C29.188 73.4004 30.1706 74.3829 31.3781 74.3829C32.5857 74.3829 33.5683 73.4004 33.5683 72.1928C33.5683 70.9851 32.5857 70.0025 31.3781 70.0025C30.1706 70.0025 29.188 70.9851 29.188 72.1928ZM58.1708 72.1928C58.1708 69.5722 60.303 67.44 62.9235 67.44C65.5439 67.44 67.6761 69.5722 67.6761 72.1928C67.6761 74.8133 65.5439 76.9454 62.9235 76.9454C60.303 76.9454 58.1708 74.8133 58.1708 72.1928ZM60.7333 72.1928C60.7333 73.4004 61.7159 74.3829 62.9235 74.3829C64.1311 74.3829 65.1136 73.4004 65.1136 72.1928C65.1136 70.9851 64.1311 70.0025 62.9235 70.0025C61.7159 70.0025 60.7333 70.9851 60.7333 72.1928Z" fill="url(#paint0_linear_241_648)"/>
</g>
<defs>
<linearGradient id="paint0_linear_241_648" x1="11.7109" y1="66.3865" x2="71.1951" y2="6.90237" gradientUnits="userSpaceOnUse">
<stop stop-color="#FCC60E"/>
<stop offset="1" stop-color="#E92E29"/>
</linearGradient>
<clipPath id="clip0_241_648">
<rect width="82" height="82" fill="white"/>
</clipPath>
</defs>
</svg>
